<?xml version="1.0" encoding="UTF-8" standalone="no"?>
<svg width="800" height="600" xmlns="http://www.w3.org/2000/svg">
  <!-- 메인 메뉴 와이어프레임 -->
  
  <!-- 배경 -->
  <rect x="0" y="0" width="800" height="600" fill="#e6f7ff" stroke="none" />
  
  <!-- 게임 제목 영역 -->
  <rect x="150" y="100" width="500" height="100" fill="#ffffff" stroke="#999999" stroke-width="1" rx="10" ry="10" />
  <text x="250" y="165" font-family="Arial" font-size="48" font-weight="bold" fill="#333333">똥피하기 게임</text>
  
  <!-- 시작 버튼 -->
  <rect x="300" y="250" width="200" height="60" fill="#4CAF50" stroke="#2E7D32" stroke-width="2" rx="10" ry="10" />
  <text x="360" y="290" font-family="Arial" font-size="24" fill="#ffffff">시작하기</text>
  
  <!-- 설정 버튼 -->
  <rect x="300" y="330" width="200" height="60" fill="#2196F3" stroke="#0D47A1" stroke-width="2" rx="10" ry="10" />
  <text x="370" y="370" font-family="Arial" font-size="24" fill="#ffffff">설정</text>
  
  <!-- 종료 버튼 -->
  <rect x="300" y="410" width="200" height="60" fill="#F44336" stroke="#B71C1C" stroke-width="2" rx="10" ry="10" />
  <text x="370" y="450" font-family="Arial" font-size="24" fill="#ffffff">종료</text>
  
  <!-- 장식용 똥 아이콘 -->
  <!-- 왼쪽 위 -->
  <g transform="translate(120, 120)">
    <path d="M25,3 C28,3 31,5 31,8 
             C35,8 38,11 38,15 
             C42,15 45,19 45,23 
             C47,23 48,27 48,30 
             C48,40 38,47 25,47 
             C12,47 2,40 2,30 
             C2,27 3,23 5,23 
             C5,19 8,15 12,15 
             C12,11 15,8 19,8 
             C19,5 22,3 25,3 Z" 
          fill="#8B4513" stroke="#5D2906" stroke-width="2" />
    <circle cx="18" cy="22" r="4" fill="#FFFFFF" />
    <circle cx="32" cy="22" r="4" fill="#FFFFFF" />
    <circle cx="18" cy="22" r="2" fill="#000000" />
    <circle cx="32" cy="22" r="2" fill="#000000" />
    <path d="M18,32 Q25,38 32,32" stroke="#000000" stroke-width="2" fill="none" />
  </g>
  
  <!-- 오른쪽 위 -->
  <g transform="translate(620, 120)">
    <path d="M25,3 C28,3 31,5 31,8 
             C35,8 38,11 38,15 
             C42,15 45,19 45,23 
             C47,23 48,27 48,30 
             C48,40 38,47 25,47 
             C12,47 2,40 2,30 
             C2,27 3,23 5,23 
             C5,19 8,15 12,15 
             C12,11 15,8 19,8 
             C19,5 22,3 25,3 Z" 
          fill="#8B4513" stroke="#5D2906" stroke-width="2" />
    <circle cx="18" cy="22" r="4" fill="#FFFFFF" />
    <circle cx="32" cy="22" r="4" fill="#FFFFFF" />
    <circle cx="18" cy="22" r="2" fill="#000000" />
    <circle cx="32" cy="22" r="2" fill="#000000" />
    <path d="M18,32 Q25,38 32,32" stroke="#000000" stroke-width="2" fill="none" />
  </g>
  
  <!-- 왼쪽 아래 -->
  <g transform="translate(120, 420)">
    <path d="M25,3 C28,3 31,5 31,8 
             C35,8 38,11 38,15 
             C42,15 45,19 45,23 
             C47,23 48,27 48,30 
             C48,40 38,47 25,47 
             C12,47 2,40 2,30 
             C2,27 3,23 5,23 
             C5,19 8,15 12,15 
             C12,11 15,8 19,8 
             C19,5 22,3 25,3 Z" 
          fill="#8B4513" stroke="#5D2906" stroke-width="2" />
    <circle cx="18" cy="22" r="4" fill="#FFFFFF" />
    <circle cx="32" cy="22" r="4" fill="#FFFFFF" />
    <circle cx="18" cy="22" r="2" fill="#000000" />
    <circle cx="32" cy="22" r="2" fill="#000000" />
    <path d="M18,32 Q25,38 32,32" stroke="#000000" stroke-width="2" fill="none" />
  </g>
  
  <!-- 오른쪽 아래 -->
  <g transform="translate(620, 420)">
    <path d="M25,3 C28,3 31,5 31,8 
             C35,8 38,11 38,15 
             C42,15 45,19 45,23 
             C47,23 48,27 48,30 
             C48,40 38,47 25,47 
             C12,47 2,40 2,30 
             C2,27 3,23 5,23 
             C5,19 8,15 12,15 
             C12,11 15,8 19,8 
             C19,5 22,3 25,3 Z" 
          fill="#8B4513" stroke="#5D2906" stroke-width="2" />
    <circle cx="18" cy="22" r="4" fill="#FFFFFF" />
    <circle cx="32" cy="22" r="4" fill="#FFFFFF" />
    <circle cx="18" cy="22" r="2" fill="#000000" />
    <circle cx="32" cy="22" r="2" fill="#000000" />
    <path d="M18,32 Q25,38 32,32" stroke="#000000" stroke-width="2" fill="none" />
  </g>
</svg>
