<?xml version="1.0" encoding="UTF-8" standalone="no"?>
<svg width="30" height="30" xmlns="http://www.w3.org/2000/svg">
  <!-- 작은 크기의 귀여운 똥 (더 똥다운 모양) -->
  
  <!-- 메인 똥 모양 (쌓인 형태) -->
  <path d="M15,5 C17,5 19,6 19,8 
           C22,8 24,10 24,13 
           C26,13 27,16 27,18 
           C27,23 22,27 15,27 
           C8,27 3,23 3,18 
           C3,16 4,13 6,13 
           C6,10 8,8 11,8 
           C11,6 13,5 15,5 Z" 
        fill="#8B4513" stroke="#5D2906" stroke-width="1" />
  
  <!-- 눈 -->
  <circle cx="11" cy="14" r="2" fill="#FFFFFF" />
  <circle cx="19" cy="14" r="2" fill="#FFFFFF" />
  <circle cx="11" cy="14" r="1" fill="#000000" />
  <circle cx="19" cy="14" r="1" fill="#000000" />
  
  <!-- 웃는 입 -->
  <path d="M11,18 Q15,21 19,18" stroke="#000000" stroke-width="1" fill="none" />
  
  <!-- 하이라이트 -->
  <circle cx="13" cy="10" r="1" fill="#A0522D" />
  <circle cx="17" cy="10" r="1" fill="#A0522D" />
  
  <!-- 똥 질감 표현 -->
  <path d="M10,11 C12,10 14,10 16,11" stroke="#5D2906" stroke-width="0.5" fill="none" opacity="0.7" />
  <path d="M8,16 C12,15 18,15 22,16" stroke="#5D2906" stroke-width="0.5" fill="none" opacity="0.7" />
  <path d="M9,21 C12,20 18,20 21,21" stroke="#5D2906" stroke-width="0.5" fill="none" opacity="0.7" />
</svg>
