<?xml version="1.0" encoding="UTF-8" standalone="no"?>
<svg width="50" height="50" xmlns="http://www.w3.org/2000/svg">
  <!-- 큰 크기의 귀여운 똥 (더 똥다운 모양) -->
  
  <!-- 메인 똥 모양 (여러 층으로 쌓인 형태) -->
  <path d="M25,3 C28,3 31,5 31,8 
           C35,8 38,11 38,15 
           C42,15 45,19 45,23 
           C47,23 48,27 48,30 
           C48,40 38,47 25,47 
           C12,47 2,40 2,30 
           C2,27 3,23 5,23 
           C5,19 8,15 12,15 
           C12,11 15,8 19,8 
           C19,5 22,3 25,3 Z" 
        fill="#8B4513" stroke="#5D2906" stroke-width="2" />
  
  <!-- 눈 -->
  <circle cx="18" cy="22" r="4" fill="#FFFFFF" />
  <circle cx="32" cy="22" r="4" fill="#FFFFFF" />
  <circle cx="18" cy="22" r="2" fill="#000000" />
  <circle cx="32" cy="22" r="2" fill="#000000" />
  
  <!-- 웃는 입 -->
  <path d="M18,32 Q25,38 32,32" stroke="#000000" stroke-width="2" fill="none" />
  
  <!-- 볼 홍조 -->
  <circle cx="12" cy="28" r="3" fill="#A0522D" opacity="0.3" />
  <circle cx="38" cy="28" r="3" fill="#A0522D" opacity="0.3" />
  
  <!-- 하이라이트 -->
  <circle cx="20" cy="14" r="2" fill="#A0522D" />
  <circle cx="30" cy="14" r="2" fill="#A0522D" />
  
  <!-- 똥 질감 표현 -->
  <path d="M15,10 C18,9 22,9 25,10" stroke="#5D2906" stroke-width="1" fill="none" opacity="0.7" />
  <path d="M12,15 C17,14 23,14 28,15" stroke="#5D2906" stroke-width="1" fill="none" opacity="0.7" />
  <path d="M8,20 C15,19 35,19 42,20" stroke="#5D2906" stroke-width="1" fill="none" opacity="0.7" />
  <path d="M10,26 C18,25 32,25 40,26" stroke="#5D2906" stroke-width="1" fill="none" opacity="0.7" />
  <path d="M8,32 C15,31 35,31 42,32" stroke="#5D2906" stroke-width="1" fill="none" opacity="0.7" />
  <path d="M10,38 C18,37 32,37 40,38" stroke="#5D2906" stroke-width="1" fill="none" opacity="0.7" />
  <path d="M15,44 C20,43 30,43 35,44" stroke="#5D2906" stroke-width="1" fill="none" opacity="0.7" />
  
  <!-- 똥 층 구분선 -->
  <path d="M19,8 C21,7 29,7 31,8" stroke="#5D2906" stroke-width="1" fill="none" opacity="0.5" />
  <path d="M12,15 C17,14 33,14 38,15" stroke="#5D2906" stroke-width="1" fill="none" opacity="0.5" />
  <path d="M5,23 C10,22 40,22 45,23" stroke="#5D2906" stroke-width="1" fill="none" opacity="0.5" />
</svg>
