<?xml version="1.0" encoding="UTF-8" standalone="no"?>
<svg width="40" height="40" xmlns="http://www.w3.org/2000/svg">
  <!-- 중간 크기의 귀여운 똥 (더 똥다운 모양) -->
  
  <!-- 메인 똥 모양 (쌓인 형태) -->
  <path d="M20,5 C23,5 26,7 26,10 
           C30,10 33,13 33,17 
           C36,17 38,21 38,24 
           C38,32 30,37 20,37 
           C10,37 2,32 2,24 
           C2,21 4,17 7,17 
           C7,13 10,10 14,10 
           C14,7 17,5 20,5 Z" 
        fill="#8B4513" stroke="#5D2906" stroke-width="1.5" />
  
  <!-- 눈 -->
  <circle cx="14" cy="18" r="3" fill="#FFFFFF" />
  <circle cx="26" cy="18" r="3" fill="#FFFFFF" />
  <circle cx="14" cy="18" r="1.5" fill="#000000" />
  <circle cx="26" cy="18" r="1.5" fill="#000000" />
  
  <!-- 웃는 입 -->
  <path d="M14,24 Q20,28 26,24" stroke="#000000" stroke-width="1.5" fill="none" />
  
  <!-- 볼 홍조 -->
  <circle cx="10" cy="22" r="2" fill="#A0522D" opacity="0.3" />
  <circle cx="30" cy="22" r="2" fill="#A0522D" opacity="0.3" />
  
  <!-- 하이라이트 -->
  <circle cx="17" cy="12" r="1.5" fill="#A0522D" />
  <circle cx="23" cy="12" r="1.5" fill="#A0522D" />
  
  <!-- 똥 질감 표현 -->
  <path d="M12,14 C16,13 24,13 28,14" stroke="#5D2906" stroke-width="0.7" fill="none" opacity="0.7" />
  <path d="M10,20 C15,19 25,19 30,20" stroke="#5D2906" stroke-width="0.7" fill="none" opacity="0.7" />
  <path d="M8,26 C14,25 26,25 32,26" stroke="#5D2906" stroke-width="0.7" fill="none" opacity="0.7" />
  <path d="M10,32 C15,31 25,31 30,32" stroke="#5D2906" stroke-width="0.7" fill="none" opacity="0.7" />
  
  <!-- 똥 층 구분선 -->
  <path d="M14,10 C17,9 23,9 26,10" stroke="#5D2906" stroke-width="0.7" fill="none" opacity="0.5" />
  <path d="M7,17 C12,16 28,16 33,17" stroke="#5D2906" stroke-width="0.7" fill="none" opacity="0.5" />
</svg>
