<?xml version="1.0" encoding="UTF-8" standalone="no"?>
<svg width="50" height="50" xmlns="http://www.w3.org/2000/svg">
  <!-- 귀여운 흰색 고양이 캐릭터 - 기본 상태 -->
  
  <!-- 몸통 -->
  <ellipse cx="25" cy="30" rx="15" ry="15" fill="#FFFFFF" stroke="#000000" stroke-width="1" />
  
  <!-- 머리 -->
  <circle cx="25" cy="20" r="12" fill="#FFFFFF" stroke="#000000" stroke-width="1" />
  
  <!-- 귀 -->
  <polygon points="17,12 13,4 19,8" fill="#FFFFFF" stroke="#000000" stroke-width="1" />
  <polygon points="33,12 37,4 31,8" fill="#FFFFFF" stroke="#000000" stroke-width="1" />
  
  <!-- 내부 귀 -->
  <polygon points="17,12 14,6 18,9" fill="#FFDDDD" stroke="none" />
  <polygon points="33,12 36,6 32,9" fill="#FFDDDD" stroke="none" />
  
  <!-- 눈 -->
  <ellipse cx="20" cy="18" rx="2.5" ry="3" fill="#FFFFFF" stroke="#000000" stroke-width="0.5" />
  <ellipse cx="30" cy="18" rx="2.5" ry="3" fill="#FFFFFF" stroke="#000000" stroke-width="0.5" />
  
  <!-- 눈동자 -->
  <ellipse cx="20" cy="18" rx="1.5" ry="2" fill="#000000" />
  <ellipse cx="30" cy="18" rx="1.5" ry="2" fill="#000000" />
  
  <!-- 코 -->
  <path d="M25,22 Q25,23 24,23 L26,23 Q25,23 25,22" fill="#000000" stroke="#000000" stroke-width="0.5" />
  
  <!-- 입 -->
  <path d="M22,25 Q25,27 28,25" stroke="#000000" stroke-width="0.5" fill="none" />
  
  <!-- 수염 -->
  <line x1="15" y1="23" x2="8" y2="21" stroke="#000000" stroke-width="0.5" />
  <line x1="15" y1="24" x2="8" y2="24" stroke="#000000" stroke-width="0.5" />
  <line x1="15" y1="25" x2="8" y2="27" stroke="#000000" stroke-width="0.5" />
  
  <line x1="35" y1="23" x2="42" y2="21" stroke="#000000" stroke-width="0.5" />
  <line x1="35" y1="24" x2="42" y2="24" stroke="#000000" stroke-width="0.5" />
  <line x1="35" y1="25" x2="42" y2="27" stroke="#000000" stroke-width="0.5" />
  
  <!-- 발 -->
  <ellipse cx="18" cy="45" rx="5" ry="3" fill="#FFFFFF" stroke="#000000" stroke-width="1" />
  <ellipse cx="32" cy="45" rx="5" ry="3" fill="#FFFFFF" stroke="#000000" stroke-width="1" />
  
  <!-- 꼬리 -->
  <path d="M10,30 Q5,25 10,20 Q15,15 10,15" fill="none" stroke="#000000" stroke-width="1.5" />
</svg>
