<?xml version="1.0" encoding="UTF-8" standalone="no"?>
<svg width="50" height="50" xmlns="http://www.w3.org/2000/svg">
  <!-- 귀여운 흰색 고양이 캐릭터 - 왼쪽 이동 상태 -->
  
  <!-- 몸통 (약간 왼쪽으로 기울임) -->
  <ellipse cx="23" cy="30" rx="15" ry="15" fill="#FFFFFF" stroke="#000000" stroke-width="1" transform="rotate(-5, 23, 30)" />
  
  <!-- 머리 -->
  <circle cx="23" cy="20" r="12" fill="#FFFFFF" stroke="#000000" stroke-width="1" />
  
  <!-- 귀 -->
  <polygon points="15,12 11,4 17,8" fill="#FFFFFF" stroke="#000000" stroke-width="1" />
  <polygon points="31,12 35,4 29,8" fill="#FFFFFF" stroke="#000000" stroke-width="1" />
  
  <!-- 내부 귀 -->
  <polygon points="15,12 12,6 16,9" fill="#FFDDDD" stroke="none" />
  <polygon points="31,12 34,6 30,9" fill="#FFDDDD" stroke="none" />
  
  <!-- 눈 (왼쪽을 보는 상태) -->
  <ellipse cx="18" cy="18" rx="2.5" ry="3" fill="#FFFFFF" stroke="#000000" stroke-width="0.5" />
  <ellipse cx="28" cy="18" rx="2.5" ry="3" fill="#FFFFFF" stroke="#000000" stroke-width="0.5" />
  
  <!-- 눈동자 (왼쪽을 보는 상태) -->
  <ellipse cx="17" cy="18" rx="1.5" ry="2" fill="#000000" />
  <ellipse cx="27" cy="18" rx="1.5" ry="2" fill="#000000" />
  
  <!-- 코 -->
  <path d="M23,22 Q23,23 22,23 L24,23 Q23,23 23,22" fill="#000000" stroke="#000000" stroke-width="0.5" />
  
  <!-- 입 -->
  <path d="M20,25 Q23,27 26,25" stroke="#000000" stroke-width="0.5" fill="none" />
  
  <!-- 수염 (왼쪽을 보는 상태) -->
  <line x1="13" y1="23" x2="6" y2="21" stroke="#000000" stroke-width="0.5" />
  <line x1="13" y1="24" x2="6" y2="24" stroke="#000000" stroke-width="0.5" />
  <line x1="13" y1="25" x2="6" y2="27" stroke="#000000" stroke-width="0.5" />
  
  <line x1="33" y1="23" x2="40" y2="21" stroke="#000000" stroke-width="0.5" />
  <line x1="33" y1="24" x2="40" y2="24" stroke="#000000" stroke-width="0.5" />
  <line x1="33" y1="25" x2="40" y2="27" stroke="#000000" stroke-width="0.5" />
  
  <!-- 발 (왼쪽 발 앞으로) -->
  <ellipse cx="15" cy="45" rx="5" ry="3" fill="#FFFFFF" stroke="#000000" stroke-width="1" />
  <ellipse cx="30" cy="45" rx="5" ry="3" fill="#FFFFFF" stroke="#000000" stroke-width="1" />
  
  <!-- 꼬리 (움직이는 상태) -->
  <path d="M8,30 Q3,25 8,20 Q13,15 8,15" fill="none" stroke="#000000" stroke-width="1.5" />
</svg>
