<?xml version="1.0" encoding="UTF-8" standalone="no"?>
<svg width="50" height="50" xmlns="http://www.w3.org/2000/svg">
  <!-- 귀여운 흰색 고양이 캐릭터 - 오른쪽 이동 상태 -->
  
  <!-- 몸통 (약간 오른쪽으로 기울임) -->
  <ellipse cx="27" cy="30" rx="15" ry="15" fill="#FFFFFF" stroke="#000000" stroke-width="1" transform="rotate(5, 27, 30)" />
  
  <!-- 머리 -->
  <circle cx="27" cy="20" r="12" fill="#FFFFFF" stroke="#000000" stroke-width="1" />
  
  <!-- 귀 -->
  <polygon points="19,12 15,4 21,8" fill="#FFFFFF" stroke="#000000" stroke-width="1" />
  <polygon points="35,12 39,4 33,8" fill="#FFFFFF" stroke="#000000" stroke-width="1" />
  
  <!-- 내부 귀 -->
  <polygon points="19,12 16,6 20,9" fill="#FFDDDD" stroke="none" />
  <polygon points="35,12 38,6 34,9" fill="#FFDDDD" stroke="none" />
  
  <!-- 눈 (오른쪽을 보는 상태) -->
  <ellipse cx="22" cy="18" rx="2.5" ry="3" fill="#FFFFFF" stroke="#000000" stroke-width="0.5" />
  <ellipse cx="32" cy="18" rx="2.5" ry="3" fill="#FFFFFF" stroke="#000000" stroke-width="0.5" />
  
  <!-- 눈동자 (오른쪽을 보는 상태) -->
  <ellipse cx="23" cy="18" rx="1.5" ry="2" fill="#000000" />
  <ellipse cx="33" cy="18" rx="1.5" ry="2" fill="#000000" />
  
  <!-- 코 -->
  <path d="M27,22 Q27,23 26,23 L28,23 Q27,23 27,22" fill="#000000" stroke="#000000" stroke-width="0.5" />
  
  <!-- 입 -->
  <path d="M24,25 Q27,27 30,25" stroke="#000000" stroke-width="0.5" fill="none" />
  
  <!-- 수염 (오른쪽을 보는 상태) -->
  <line x1="17" y1="23" x2="10" y2="21" stroke="#000000" stroke-width="0.5" />
  <line x1="17" y1="24" x2="10" y2="24" stroke="#000000" stroke-width="0.5" />
  <line x1="17" y1="25" x2="10" y2="27" stroke="#000000" stroke-width="0.5" />
  
  <line x1="37" y1="23" x2="44" y2="21" stroke="#000000" stroke-width="0.5" />
  <line x1="37" y1="24" x2="44" y2="24" stroke="#000000" stroke-width="0.5" />
  <line x1="37" y1="25" x2="44" y2="27" stroke="#000000" stroke-width="0.5" />
  
  <!-- 발 (오른쪽 발 앞으로) -->
  <ellipse cx="20" cy="45" rx="5" ry="3" fill="#FFFFFF" stroke="#000000" stroke-width="1" />
  <ellipse cx="35" cy="45" rx="5" ry="3" fill="#FFFFFF" stroke="#000000" stroke-width="1" />
  
  <!-- 꼬리 (움직이는 상태) -->
  <path d="M42,30 Q47,25 42,20 Q37,15 42,15" fill="none" stroke="#000000" stroke-width="1.5" />
</svg>
